<svg xmlns="http://www.w3.org/2000/svg" viewBox="0 0 797.82 541.45">
  <path 
    d="M780.99,203.15l-7.12.18-12.54-.42-8.48.03-6.73,1.03-8.89,3.05-5.3,1.92-4.64,1.1-8.51,1.08-4.61.06-3.99.29-3.56.09.23-.62-.05-1.78-.1-.11-.09-1.18.03-.18-.08-.48v-.09s0-.16,0-.16l-.03-.06-.05-.67-.37-1.55-.26-1.51-.13-.13-.07-.29-.05-1.78.62.23,4.22-.91,5.18-1.61,3.09-1.68.94-.75.02.05,2.04-1.71,3.35-3.34h2.83s1.47-.17,1.47-.17l2.94-.32.74-.08,2.42-.51,2.53-.47,1.2-.31,1.12-.24.02-.06.85-.22h.29s2.94-.31,2.94-.31l.12-.12,5.76-.53,2.86-1.06.88-1.44-1.55-.57-3.99.29-6.93.61-8.24-.19-2.3-.32-.39-.27,1.93-2.56.49-2.29-.24-2.21-.08-.73-.7-1.91-.16-.53-.05-.03-.14-.39-1.18-4.25-.86-3.25-.63-3.37.88-1.44,4.78-5.28.69-1.86-.12-.26.38-1.41,3.14.1,7.12-.18,10.06-.5,4.97-.27.06.02,13-.82.43-.13,5.02-.32,5.96.09,6.32,1.99.74-.08,2.21-.24,2.24-1.29.88-1.44-.59-1.27-.56-.54h.06s-3.65-3.47-3.65-3.47l-2.06-1.11-.43.2-.8,2.17-.85.39-2.94.32-3.95-.76-6.24-1.25-8.1-1.94-5.62-1.02-6.86-1.48-7.9-1.52-10.3-1.7-7.71-1.09-8.64-1.44-7.2-.55-14.94-.6-7.12.18-5.46.45-7.04.92-1.98-.38.34-.93,1.19-1.32.88-1.44-.93-.34-2.46.94-1.98.59-3.09.73-3.02.53-1.67-.26,3.11-5.55,1.84-4.96.15-1.36v-2.83s-1.45-.88-1.45-.88l-3.2,1.99-2.13.98-2.94.32-3.22-.84-.28-1.16,1.18-4.15.53-3.33-1.13-.77-1.5,1.21-2.63.44-1.98-.38-.59-1.28.72-2.91-.7-.96-1.86-.69-1.21-1.5-1.52-1.62.77-1.13,1.19-1.32,2.09.07,6-.95,5.07-1.3,4.22-.91,4.95-.99,4.3-.17-1.42,1.94-.8,2.17.98,2.12,2.17.8,1.05.03,2.12-.98.8-2.17-.46-1.31v-.27s-.13-.1-.13-.1l-.26-.75-3.38-2.31.11-.31,3.29-1.25,4.64-1.1,5.38-1.18,2.63-.44,5.26-.87,6.93-.61,2.46.15,1.29.19,3,.07,1.18.07,3.19.03,2.77.06.15-.04,1.83.02.11.09,2.21-.24.21-.1,1.68-.26,1.93-1.4.8-2.17.03-1.05-.09-.03-.07-1.44-.94-3.17-1.68-3.09-4.48-6.95-.76-.81-.02-.89,1.27-.59,4.22-.91,3.71-1.45,3.63-2.18.69-1.86-.2-.43-2.91-.72-4.84.68-6.96,1.65-1.36-.15-1.29-2.24.5-1.34,2.17-.14,1.05-.39.11.11,1.7-.78,2.16-2.02,3.68-.4,3.29-1.25,3.09-1.68,1.11-2.06-.2-.43-1.55-.57-2.09-.07-3.37.52-3.29,1.25-2.26,2.5-.72.14h-1.34s-.15-.07-.15-.07l-1.78.05-3.06.63.49-2.29-1.21-1.5-.59-1.27-1.01-1.08.23-.62-1.17-2.55-2.38-4.05-2.29-.49,1.38-3.72.65-.82,1.26-3.41.03-1.05-.47-1.59-1.52-1.62-3.41-1.26-5.81-1.45-7.17-1.6-2.79-1.03-.39-.85-1.86-.69-2.63.44-2.52.13-6.43-1.68-8.49-2.79-3.49-2,.34-.93.62.23,1.59-.47,10.44-2.48,2.32-.55,3.85-.87,4.58-.95,3.12-.66,4.89-.96.12-.06,5.14-.82,2.57-.46,2.69-.41.24-.11.92-.16.63-.19.1.11,2.44-.86,1.93-1.4.8-2.17-.51-.54-.06.03-.75-.68-1.67-.26-2.94.32-4.22.91-7.08,1.96-6.34,1.88-8.55,2.12-5.49,1.49-7.39,1.85-5.92,1.69-3.91,1.02-7.08,1.96-4.22.91-2.97,1.37-5.18,1.61-7.19,2.27-6.34,1.88-5.18,1.61-7.5,2.16-5.49,1.49-4.76,1.41-6.96,1.65-2.87-1.77-.65.82.59,1.28-.65.82-6.34,1.88-6.65,1.77-5.18,1.61-6.34,1.88-5.49,1.49-4.33,1.22-1.9.36-.65.82-1.36-.15-1.27.59-3.17.94-5.92,1.69-.23.62-.62-.23-6.34,1.88-1.86.52-2.21.24-4.22.91-7.08,1.96-6.34,1.88-8.55,2.12-5.49,1.49-7.39,1.85-5.92,1.69-3.91,1.02-2.96.82-.73-.59-.65.82.17.11-2.89.8-4.22.91-2.97,1.37-5.18,1.61-7.19,2.27-6.34,1.88-5.18,1.61-7.5,2.16-5.49,1.49-4.76,1.41-6.96,1.65-2.87-1.77-.65.82.59,1.27-.65.82-6.34,1.88-6.65,1.77-5.18,1.61-1.68.5.07-.2-.82-.65-1.08,1.01-.29.47-2.55.76-5.49,1.49-4.33,1.22-1.9.36-.65.82-.99-.11,1-1.11-1.24-.46-.85.39-3.37.52-.65.82-2.09-.07-3.71,1.45-1.9.36.23-.62-1.13-.77-1.47.16-2.86,1.06-3.17.94-3.48.83-4.87,1.72-4.02,1.33-1.5,1.21-1.44-.88-.54.51-1.7.78-.65.82-.62-.23-2.01.67-.65.82.47,1.59-.62-.23-1.81,1.09-2.01.67-1.67-.26-.9-1.39-1.05-.03-.77,1.13.62.23-.88,1.44-.62-.23-1.28.59-1.08,1.01.4.15-.38.02-1.5,1.21-2.75.75-4.45,1.53-3.29,1.25-.65.82-1.47.16-2.17-.8-.88,1.44-2.52.13-3.79.71-1.7.78-2.32.55-.65.82-.62-.23-.23.62-.62-.23-3.29,1.25-3.48.83-2.48-.92-3.6,1.14-1.08,1.01-.62-.23-2.32.55-.15,1.36,1.75,1-.88,1.44-.62-.23-.65.82.86,2.43-.62-.23-.96.7-1.81,1.09.82.65,3.91-1.02,4.33-1.22,4.64-1.1,3.45.22-.65.82-2.66,1.48-5.92,1.69-1.27.59,1.24.46,3.37-.52,7.27-1.54,3.68-.4-.23.62-1.05-.03-3.91,1.02-4.02,1.33-1.08,1.01.62.23,3.25-.21,4.33-1.22,2.21-.24,4.22-.91,1.78-.05-.23.62-3.17.94-2.21.24-2.97,1.37-.88,1.44.93.34,4.22-.91,5.38-1.18,3.79-.71,4.22-.91,3.79-.71,2.01-.67,2.4.18.96-.7,1.05.03-.77,1.13-2.75.75-15.08,3.58-3.91,1.02-4.1.6-3.91,1.02-3.09,1.68-1.47.16-.05-1.78-1.67-.26-2.48-.92-.43.2-11.95,3.68-4.22.91-5.49,1.49-.23.62-.62-.23-1.08,1.01.62.23.23-.62.62.23,2.32-.55,1.16-.28.79-.24,1.95-.51.11-.1.32-.09,4.84-.68,3.22.84,1.78-.05,1.67.26-.65.82-6.46,2.19-5.49,1.49-3.91,1.02-3.86,1.03h-.04s-.05.03-.05.03l-2.69.71-3.91,1.02-4.22.91-7.08,1.96-6.34,1.88-5.49,1.49-5.61,1.8-5.3,1.92-2.97.66-.08-.03-1.52.39-1.96.44-.99.32-.6.15-4.98,1.6-3.37.95-3.05.96-.12-.02-1.55.51-.04-.04-2.44.86-5.61,1.8-4.56,1.84-.22.36-.32.15-.05.45-.29.48.22.23-.02.19h.21s.1.11.1.11l.21-.1.52.02,1.54-.92,1.75-.33,1.26-.24h.09s.11.08.11.08l2.32-.55,3.1-1.23.61-.22,2.01-.67,4.76-1.41,2.75-.75.14-.06,1.44-.41h2.83s2.44-.87,2.44-.87l2.01-.67,1.24-.48,1.62-.57,1.99-.68.02.02,2.44-.86,4.02-1.33,2.09.07,3.98-1.24,4.68-1.2,1.16-.28,2.8-.9.79-.24.89-.31,1.12-.36,1.32-.48,1.11-.38.59-.23,2.27-.82,4.02-1.33,4.56-1.84,2.32-.55,2.32-.55,4.56-1.84,2.32-.55.23-.62,1.05.03,1.9-.36,4.64-1.1,5.18-1.61,4.45-1.53,5.69-1.07,4.22-.91,5.61-1.8,5.92-1.69,5.57-.76,1.5-1.21,2.21-.24,5.18-1.61,3.48-.83,3.17-.94,2.06,1.11,1.23-2.37.62.23,1.59-.47,3.91-1.02,3.29-1.25,2.21-.24,3.6-1.14,6.23-1.57,5.97-1.77.14.15-.02.19h.21s.1.11.1.11l.21-.1.52.02,1.54-.92,1.75-.33,1.26-.24h.09s.11.08.11.08l2.32-.55,2.47-.98.1-.02-.54.51-4.45,1.53-5.61,1.8-4.02,1.33-4.33,1.22-.23.62-1.05-.03-6.77,2.08-5.61,1.8-4.98,2.03-4.02,1.33-6.88,2.39-4.02,1.33-5.3,1.92-5.72,2.11-4.45,1.53-.98.4-.51-.41-1.16.28-3.6,1.14-4.71,1.46-.05-.05-.43.2-3.29,1.25-.33.41-.21.1.02.15-.13.16.16.13.03.29h.32s.3.23.3.23l.95-.27h.21s0-.06,0-.06l1.35-.39-.48.22-3.6,1.14-1.73-.19.04-.24-.93-.34-1.9.36-1.5,1.21.28,1.16h.08s-1.11.13-1.11.13l-1.9.36.23-.62-.78-1.7-2.17-.8-3.45-.22-2.21.24-.26,1.67,2.53,2.7,2.25,1.54-.03,1.05-1.16.28-4.02,1.33-5.61,1.8-3.53-.95-3.45-.22-2.24,1.29-.15,1.36,1.32,1.19-.77,1.13-4.02,1.33-3.68.4-3.94,2.07-3.02-.41-2.27,1.75-1.67.31-2.94.32-1.59.47-1.73,1.83-1.9.36-.72.2v-.12s-3.61,1.14-3.61,1.14l-1.36-.15-.39-.85-1.47.16-1.56,2.42-2.3.38-.96.7-2.21.24-.06.08-1.29.18-.12-.1-1.9.36-1.36.82-1.64.63-1.98.59-2.01.67-1.59.47-3.02,1-2.59.8-.03.03-3.56,1.1-5.61,1.8-3.51,1.87-1.88,2.75-.84.7-1.48.28-3.02-.41-1.19,1.32-3.2,1.99.02.02-.88.55v-.17s-.53.51-.53.51l-2.52.13-1.93,1.4-2.63.44-.48.18-.26-.1-2.12.98-3.79.71-4.25,1.95-3.09,1.68-3.4,1.56-3.29,1.25-5.3,1.92-1.59.47-1.38.55-1.48.51-3.4,1.56-.1.26-.44.25.28.19-.09.23.56.09.38.26.61-.1.13.02.46-.12,1.43-.24,1.72-.57,1.45-.37,3.14-.97.03.03,2.01-.67,7.65-3.51,3.28-1.25,6.8-3.12,3.02-1,2.59-.8.42-.2,1.7-.78,5.8-1.38,3.33.53,1.9-.36,1.42-1.94,3.41,1.26,1.7-.78,2.4.18.39-.49,3.82-.42,1.16-.28,2.21-.24.54-.51,2.44-.86,1.78-.05-.54.51-.54.51-.1.61-.36.63.28,1.16-2.17-.8-1.36-.15-2.12.98-1.11,2.06.2.42-.49,2.29.79.54-4.27,1.23.31-.83-.82-.65-1.27.59-.88,1.44.39.15-2.48,1.02.62-1.01-.82-.65-2.44.86-1.08,1.01,1.24.46.96-.1-1.21.56-1.08,1.01,1.24.46,4.33-1.22,5.49-1.49,1.29-.4-.34.91,1.44.88,1.47-.16.57-.26.17.18.96-.7,2.32-.55,1.08-1.01,1.86.69,2.35-1.6,2.79-.3.15.03-.03,1-.77,1.13-2.78,1.79-1.47.16-.65.82-2.66,1.48-2.68-1.34-1.5,1.21-2.32.55-1.08,1.01-.77,1.13-2.32.55-3.6,1.19v-.06s-.42.2-.42.2l-4.45,1.53-2.98,1.37-4.45,1.53-.77,1.13,2.17.8.42-.2v-.04s.45-.23.45-.23l-.03.08,1.49-.86.8-.43,3.08.1.11-.05.94.08,5.61-1.8,3.29-1.25.23-.62.62.23.54-.51,3.48-.83,3.56-.09,2.08-2.76.62.23,4.14-1.64,2.12-.98-.34.93-1.93,1.4-2.04,1.71-3.29,1.25-4.25,1.95-3.29,1.25-.23.62-.62-.23-6.57,2.5-.23.62-.62-.23-.23.62-.62-.23-2.98,1.37-1.04.36-.12-.08-3.29,1.25-.23.62-.62-.23-2.12.98-4.45,1.53-4.13,1.64-3.29,1.25-.23.62-.62-.23-4.99,2.03-3.29,1.25-6.26,2.62.54-.51.85-.39.34-.93-1.27.59-4.79,2.46.62.23h.03s-.05.03-.05.03v-.03s-.41.2-.41.2l-3.6,1.14-3.25.21-.07.05-1.4.11-1.59.47-.17.11-1.46.48.05-.12-2.01.67-.16.06-3.74.96-6.19.53-1.08,1.01,2.45,1.96.7.96-2.97,1.37-3.29,1.25-.23.62-1.05-.03.39.85-.34.93-2.35,1.6-1.08,1.01-.62-.23-3.29,1.25-.23.62-.62-.23-.54.51-3.4,1.56.16,1.47,1.55.57,1.9-.36,5.41-2.23,2.17.8,3.07,2.19,2.48.92,1.47-.16.13-.12.97-.17h.07s.54-.09.54-.09l.19.02.05-.07,1.11-.21,5.92-1.69,5.38-1.18,6.54-1.46,4.25-1.95.85-.46v.07s2.24-1.29,2.24-1.29l3.4-1.56.43-.2,1.55-.48h.03s3.6-1.12,3.6-1.12l5.26-.87,5.65-.02,3.79-.71,5.21-2.65,5.36-4.01,2.91.72,1.27-.59.38-1.98,1.39-.9,2.98-1.37,2.52-.13,3.79-.71.59-.06-.64.94.93.34,3.4-1.56.09-.14,1.51-.16-1.65,2.56-.37.04-.25-.27-.85.39-2.94.32-1.7.78.28,1.16-.77,1.13,1.36.15,1.7-.78,1.47-.16,1.78-.05-2.35,1.6-2.41.89-.03-.03-3.29,1.25-5.3,1.92-2.32,1.26-.23-.09-.54.51-2.86,1.06-1.08,1.01,1.24.46.54-.51,1.47-.16.96-.7,2.01-.67,2.82-1.07,2.05-.65,4.02-1.33,3.91-1.02,5.92-1.69,4.1-.6,1.78-.05-1.59.47-5.21,2.65-3.29,1.25-4.56,1.84-4.02,1.33-.18.49-.28.05-.39-.14-.8.27h-.36s-1.01.37-1.01.37l.08-.7-.74.08-.57.23-1.02.24-5.79,2.45-1.63.44-1.36-.15-.9-1.39.46-1.24,1.36.15.03-1.05-2.43.86-3.29,1.25-.77,1.13,1.9-.36,1.13.77-.23.62-.96.7-1.7.78-.23.62.29.18-1.57.9-1.14.38-4.58,1.24-3.4,1.56-2.52.13-1.7.78-2.01.67-1.75-1,.46-1.24.62.23.23-.62.62.23,1.08-1.01.62.23.54-.51,2.01-.67.23-.62.62.23,2.63-.44.2-.06,1.7-.3,1.28-.59.18-.29.36-.22.05-.45.29-.48-.23-.14.03-.29-.72-.14-.52-.32-.74.08-5.07,1.3-2.37,1.32-1.94.79-1.64.63-.11.07-.32.13-1.14.29-.02-.02-3.91,1.02-2.86,1.06-3.09,1.68-2.44.86-3.51,1.87-.31.29-1.39.49-.23.62-.62-.23-2.01.67-1.08,1.01-.62-.23-.96.7.1.11-.22.2h.4s.22.23.22.23l.91-.27h.25s2.8-.91,2.8-.91l5.55-1.65,1.78-.05-1.62,1.52-2.07.82.06-.16-.65.39-1.48.59-3.29,1.25-4.14,1.64-.77,1.13.93.34,1.59-.47,2.55-.61,2.17.24,1.16-.28.77-1.13,2.24-1.29,1.27-.59.82.65,1.98.38,1.81-1.09,2.52-.13,4.25-1.95,3.28-1.25,1.93-1.4,1.08-1.01,2.4.18,2.86-1.06,3.79-.71,4.05-2.38,1.9-.36,2.52-.13.85-.39,1.19-1.32,3.68-.4,4.76-1.41,4.02-1.33,2.94-.32,3.17-.94,2.4.18,1.08-1.01,2.87,1.77.72-2.91,3.53.95.51.54,2.13-.98,2.4.18,1.7-.78,2.94-.32.65-.82,2.48.92-.11.31-3.25.21-.54.51-2.86,1.06-1.19,1.32-2.48-.92-1.27.59-2.01.67-.23.62-.62-.23-.23.62-.93-.34-1.59.47-2.13.98-4.02,1.33-2.09-.07-1.19,1.32-4.76,1.41-2.32.55-.23.62-.62-.23-1.59.47-3.91,1.02-.23.62,1.13.77,2.52-.13,3.29-1.25,3.6-1.14,4.22-.91,6.34-1.88,2.63-.44,2.44-.86,1.09.67-.41.12-5.3,1.92-4.45,1.53-.23.62-.62-.23-5.3,1.92-5.72,2.11-3.29,1.25-4.13,1.64-4.45,1.53-.23.62-.62-.23-5.41,2.23-3.09,1.68.16,1.47,1.55.57,3.6-1.14,5.83-2.42,6.68-2.81,3.29-1.25,3.82-1.76,1.56-.59,1.63-.18.44-.64,2.01-.92,1.46.54,2.94-.32-.77,1.13-4.48,2.57-2.63.44-4.22.91.82.65,2.21-.24-.65.82-5.3,1.92-6.11,1.26-2.47,1.91-2.71-.3-3.09,1.68-4.76,1.41-7.22,3.32-2.21.24-1.27.59-.58.42-1.24.67-.22.39-.86.62-.69,1.86-2.44.86-2.32.55-3.22-.84-3.29,1.25-3.32,2.3-.88,1.44.93.34,3.45.22-1.19,1.32-6.69,2.81-4.02,1.33-3.48.83-4.1.6-5.38,1.18-5.3,1.92-1.93,1.4v.09s-.54.41-.54.41l-2.66,1.48-1.55-.57-2.09-.07-4.99,2.03-1.11,2.06-1.7.78-1.27.59-1.32.72-3.47,1.74-1.27.59-1.37.85-.44.24-4.22.91-1.5,1.21-5.19-1.22-1.05-.03-4.33,1.22-3.51,1.87-2.91-.72-.74.08-7.22,3.32-4.25,1.95-1.08,1.01-.62-.23-1.52.85-1.73.66-3.71.15-3.29,1.25-5.61,1.8-13.6,6.24-1.08,1.01-.62-.23-2.66,1.48-1.7.78-.55.44-.84.46.14.11-.25.2.58.06.35.28,3.6-1.14.96-.39,1.48-.47,2.55-1.05h.31s2.55-1.18,2.55-1.18l5.61-1.8-1.81,1.09-2.03,1.19-1.06.49.03.12-.99.58-2.97,1.37-1.08,1.01-.62-.23-1.81,1.09-1.62,1.52.82.65,4.76-1.41,5.3-1.92,7.39-1.85,4.22-.91-.54.51-2.78,1.79-1.25.95-.68.45v.06s-1.5,1.15-1.5,1.15l-3.4,1.56-3.94,2.07-3.09,1.68-2.32.55-.88,1.44-1.55-.57-1.59.47-2.12.98-.44.54-.41-.15-3.09,1.68-.15,1.36,1.55.57,1.16-.28.21-.1,2.84-.53,2.01-.67,2.12-.98,2.75-.75,7.22-3.32,1.08-1.01.62.23,3.17-.94,1.95-.71.06.04,1.77-.7,1.51-.55-.82.64-.14.07-.13.15-1.37,1.06-3.2,1.99-4.14,1.64-5.18,1.61-2.44.86-3.17.94-.23.62-.62-.23-3.4,1.56-6.11,1.26-.46,1.24,1.24.46h2.83s5.15-.57,5.15-.57l4.61-.06,3.48-.83,3.32-2.3,3.37-.52,2.32-.55,4.13-1.64,3.45.22,2.86-1.06.04-.05.39-.15.23-.62.65-.82,2.01-.67,2.66-1.48,3.29-1.25,2.13-.98h2.83s1.19-1.33,1.19-1.33l2.4.18.77-1.13.93.34,4.64-1.1,4.33-1.22,1.08-1.01,1.24.46,2.13-.98,2.32-.55,1.93-1.4,1.98.38,1.58-.47,2.21-.24,2.01-.67,5.49-1.49,3.91-1.02,1.5-1.21,1.27-.59,2.4.18,2.21-.24,4.02-1.33,5.88-.64,2.44-.86,2.01-.67,1.67.26-1.62,1.52.82.65-.34.93,1.13.77.96-.7-.82-.65.23-.62,1.86.69,2.86-1.06.88-1.44-2.91-.72-.77,1.13-1.55-.57,1.31-1.63,1.98.38,2.13-.98,1.5-1.21,1.05.03,2.4.18,1.46-2.99,1.55.57,1.36.15,1.5-1.21,3.29-1.25,2.21-.24,1.5-1.21,2.48.92h2.83s.88-1.45.88-1.45l.96-.7,3.56-.09.34-.93-.82-.65.65-.82,1.59-.47,1.78-.05.23-.62,2.68,1.34,1.62-1.52,1.86.69,1.63,1.31-.65.82-2.01.67.03.03-.46.16-.71.11-.03-.03-2.63.44-.54.51-1.9.36-2.97,1.37-1.9.36-.74.08.22.15-1.61.74-2.63.44-1.27.59-1.13-.77h-.11s-.21-.11-.21-.11l-1.53.32-1.1.12-.29.17-.13.03-4.05,2.38-3.56.09-2.01.67-1.81,1.09-2.24,1.29-.77,1.13.82.65,2.17.8,1.62-1.52,2.94-.32,3.25-.21,2.41-1.34,1.37-.43,2.79-.73,2.21-.24-.34.93-.62-.23-.85.39-1.28.59-1.85,2.14-2.52.13-.88,1.44,1.44.88-.54.51-2.21.24-2.48-.92-.96.7-2.06-1.11-2.35,1.6-3.28,1.25-2.35,1.6-1.62,1.52-2.32.55-.34.93,1.01,1.08-1.62,1.52-.03,1.05,1.86.69,1.7-.78.38-1.98,1.34-2.68,1.05.03,1.08-1.01,1.67.26-.69,1.86.7.96,1.67.26.29-.05.75.08.27-.25.66-.11.23.09.43-.2,5.69-1.07,2.6.61-.88,1.44-1.67-.26-.85.39-1.08,1.01-2.09-.07-3.07,1.05-.1-.11-1.27.59-.88,1.44,1.44.88-.54.51-1.47.16-4.02,1.33-1.9.36-1.13-.77-.51-.08-.73-.38-.85.39-.34.93-.73,1.07-1.04.38-3.02,1-3.17.94-1,1.75.39.85.15.08.75,1.31-.23.62-.74.08-.96.7-.43.2-1.16.13-.25-.15.16-.43-.59-1.27-1.13-.77-1.27.59-.69,1.86.47,1.59-.65.82-3.56.09-6.5.41-2.98,1.37-1.78.05-.85.39-2.16,2.02-3.37.52-4.56,1.84-1.19,1.32.82.65,2.32-.55,3.79-.71,2.66-1.48,2.4.18,3.06-.63,4.76-1.41,2.6.61-.23.62-1.72,1.01-4.11,1.41-5.61,1.8-4.02,1.33-3.17.94-5.61,1.8-4.76,1.41-4.79,1.51-1.55.37-1.97.81-5.03,1.89-5.61,1.8-1.08,1.01,3.02.41,3.28-1.25,3.71-1.45,1.45-.34,3.08-.45,4.87-1.72,2.29.49,1.19-1.32.62.23,5.38-1.18,4.14-1.64,2.21-.24-.77,1.13-2.01.67-3.29,1.25-4.14,1.64-2.32.55-1.93,1.4-2.44.86-.23.62-1.47.16-3.28,1.25-4.67,2.15-2.76,1.09-2.11.63-1.83,1.05-1.18.42-1.55.37-2.24,1.29-2.01.67-3.69,1.46-.02-.02-.42.2-2.12.98-.77,1.13.62.23.85-.27h.31s4.45-1.53,4.45-1.53l.41-.17,2.02-.69,4.13-1.64.77-.29,1.67-.57,3.71-1.45,1.61-.53,4.73-1.35,4.13-1.64,3.29-1.25,4.56-1.84,4.45-1.53,5.41-2.23,4.76-1.41,1.59-.47,4.99-2.03,3.17-.94,5.83-2.42,2.52-.13,1.81-1.09,3.29-1.25,1.93-.75.08.09,2.76-1.09,2.11-.63,5.3-1.92,3.6-1.14,2.44-.86,1.13.77,2.12-.98,1.98.38.91-1.23,1.19-.95,1.62-.6,1.64-.52.09.03,4.02-1.33,6.23-1.57,3.96-1.18,2.57-.28-1.15,3.1-2.63.44-3.68.4-2.12.98,1.13.77,3.68-.4.91-.07.13.11,2.94-.32,1.78-.05,3.79-.71.93.34-.77,1.13-3.4,1.56-2.63.44-1.16.28-2.21.24-1.47.16-2.12.98-2.4-.18-1.19,1.32.51.54.73-.08,3.02.41-.96.7-3.79.71-4.64,1.1-1.08,1.01,1.44.88-.11.31-2.32.55-2.58,2.22-1.44-.88.88-1.44.42-.2.11-.31.54-.51-.37.04.06-.16-3.37.52-.77,1.13,1.13.77-.8,2.17-1.18,1.47-.62.07-.13-.13-.42.2-1.42,1.94-1.05-.03-.46,1.24,1.55.57-.03,1.05,1.13.77.65-.82,1.78-.05.46-1.24.93.34.32-.15.42.07.26-.38.28-.13,1.77-2.87,2.06,1.11,1.75,1,2.43-.86,2.24-1.29,1.78-.05.43-.2.85-.39,1.05.03.93.34.2.42,1.44.88,1.08-1.01,1.23-.99.56-.16,1.3.25,1.1,1.04,2.01-.67,5.38-1.18-.65.82-2.44.86-5.3,1.92-1.31,1.63-.65.82-1.01-1.08h-.35s-.27-.23-.27-.23l-.28.2h-.15s-.14.21-.14.21l-.4.29-.29.78-.83,1.28-1.9.36-1.47.16-1.65,2.56-1.36-.15-.05-1.78-1.13-.77-2.16,2.02-.72,2.91-1.59.47-1.67-.26-.08-.74-1.44-.88-1.16.28-.05.08-.37.11-.53.59v-.08s-.66.82-.66.82l-1.36-.15.14.11-.87-.03-.23.62-.62-.23-2.55,1.17-2.52.13-.85.39-.69,1.86-2.52.13-3.4,1.56-2.25-1.54-.8,2.17-3.91,1.02-2.24,1.29-3.25.21-.96.7-2.44.86-4.25,1.95-.88,1.44,1.4,1.93,1.55.57,2.35-1.6,2.01-.67,1.19-1.32,2.54.66.97.49.72.77-.61,2.6-.43.2-1.08,1.01,1.24.46,1.13.77-.15,1.36-1.59.47-1.44-.88-2.02.93-1.89.09-.54.51-1.08,1.01-.15,1.36-.77,1.13-1.86-.69h-.42s-.2-.23-.2-.23l-.42.2-.69,1.86-.93-.34.69-1.86-1.24-.46-.54.51-.69,1.86-3.17.94-.23.62-.62-.23-2.89,2.1-2.52.13-3.37.52-.65.82,3.84,1.07-.96.7-3.37.52-.65.82.51.54-.23.62-2.17-.8,1.19-1.32.77-1.13-.93-.34-.42.2-1.9.36-1.27.59-2.29-.49-.46,1.24-1.67-.26-2.24,1.29,1.44.88-.57,1.55,1.98.38,1.81-1.09,2.32-.55,2.29.49-.03,1.05-1.24-.46-2.75.75-1.27.59-4.13,1.64-3.56.09-.92,2.48-4.13,1.64-1.55-.57-.2-.42.96-.7.77-1.13-1.36-.15-.77,1.13-.62-.23-3.4,1.56-1.19,1.32,1.55.57,1.62-1.52,2.4.18-.38,1.98.62.23.12-.17,1.66.13,1.08-1.01.93.34,1.55.57-1.19,1.32-2.09-.07-.88,1.44-1.32-1.19-2.06-1.11-.77,1.13,1.63,1.31-.34.93-2.24,1.29-2.94.32-.46,1.24,5.96.09,1.39-.9,1.47-.16,1.19-1.32,1.05.03,1.05.03,2.01-.67,1.78-.05-1,1.75.93.34,1.93-1.4,3.87.02.77-1.13-.28-1.16-3.48.83,1-1.75,1.16-.28,2.01-.67,4.22-.91,4.95-.99,3.17-.94.77-1.13-1.01-1.08.88-1.44.62.23-.26,1.67,2.48.92,2.01-.67,1.67.26,1.59-.47,2.13-.98,1.24.46-.34.93-1.1.33-.06-.05-.42.2-1.5,1.21.59,1.27-.46,1.24-1.24-.46.03-1.05-.93-.34-3.29,1.25-.03,1.05,1.13.77-.63.92-1.81-.06.15-1.36-1.67-.26-1.03,2.79-.59-1.27-1.13-.77-2.63.44-.77,1.13.39.85-.69,1.86-.96.7-2.79-1.03-1.34,2.68-2.37-1.23-1,1.75-2.09-.07-.18.07h-.56s-1.02.58-1.02.58l-1.1.41-.17.3-.37.2-.1.61-.36.63.59,1.27.23.09.27.45-.23.62-3.3,1.17-.29-.03-1.27.59-4.03-1.49-.88,1.44-.62-.23-.88,1.44-1.86-.69-.96.7-.49.8-.16.02v.24s-.23.38-.23.38l.28,1.16-.51-.54-1.44-.88-.77,1.13-1.59.47-1.9.36-1.62,1.52,1.24.46,1.16-.28,1.78-.05.85-.39,2.17.8,1.59-.47,1.24-1.88,1.66-.95.77.03,1.94,1.01.16,1.47,1.36.15.02-.04,1.03.08.85-.39,3.06-.63.02-.06,1.14-.21,1.47-.16-.07,2.09.62.23.49-2.29,1.78-.05.05-.05.69-.03-.65.82-.69,1.86,2.56,1.65-.34.93-.85.39.16,1.47.78,1.7,1.98.38-.38,1.03-.7-.02-.54.51-2.01.67-.82-.65,1.34-2.68-2.06-1.11-2.13.98-1.75-1-.77,1.13-1.24-.46-1.2.96-.81-.3-.39-.85-1.47.16-.39-.85-1.36-.15-.92,2.48,1.44.88-.03,1.05-1.05-.03-.77,1.13,1.52,1.62.96-.7,2.44-.86,1.55.57-.15,1.36-3.94,2.07-3.56.09.38-1.98-.93-.34-.85.39.98,2.13-.34.93-.74.08-2.66,1.48-2.09-.07-1.6-2.35.57-1.55-.51-.54-.05-1.78-1.36-.15-.88,1.44-1.75-1-.49,2.29-1.98-.38-.77,1.13-.62-.23-3.06.63-1.31,1.63,1.13.77,1.28-.59,1.63,1.31.57-1.55,2.29.49-.23.62,1.24.46.54-.51.15-1.36,2.17.8.2.42-.69,1.86-1.36-.15-1.31,1.63,1.86.69,1.08-1.01,1.47-.16,1.9-.36,1.39-.9,1.55.57,1.7-.78,1.08-1.01.93.34,2.63-.44,1.93-1.4,3.17-.94,2.94-.32,1.7-.78,4.45-1.53.23-.62.62.23,2.32-.55,2.81-1.11.05.06,1.28-.59,3.06-.63,4.14-1.64,3.91-1.02,2.97-1.37,2.7-.85,2.06-.56.16-.12.26-.08,1.7-.78,1.31-.5,2.67-.92,2.78-.66,1.71-.59.3-.08.96-.27h.2s.28-.14.28-.14l2.89-.81,1.36.15-.88,1.44-4.02,1.33-2.12.98-2.01.67-5.3,1.92-2.12.98-2.44.86-4.05,2.38-1.05-.03-1.7.78-1.08,1.01-.93-.34-4.02,1.33-1.81,1.09,1.13.77,2.32-.55,3.56-.09,1.11-2.06,1.67.26,1.08-1.01,2.21-.24.29-.17.14-.02,2.13-.98,2.01-.67,1.19-1.32,1.86.69,1.5-1.21,2.12-.98,3.17-.94,3.82-1.76,3.09-1.68,2.86-1.06,3.37-.52.74-.08,2.76-1.09,2.11-.63,2.99,1.46.85-.39,1.08-1.01.62.23,7.47-1.11,7.67-1.07.11.08,1.9-.36,6.11-1.26.65-.17.09.09,4.33-1.22,1.1-.32.06.04.34-.16,6-1.72.02-.02,1.57-.45,4.33-1.22,8.43-1.81,6.42-1.15,1.27.2-.03.26-.11.31-1.21.73-1.34.44-.45.42.02-.23-.65.82-.62-.23-1.81,1.09-.04.1-.93.6-1.19,1.32-2.79-1.03-.85.39-.92,2.48-2.86,1.06-.7-.96-1.44-.88-.85.39-.72,2.91-2.44.86-3.6,1.14-2.29-.49-.96.7-.96.7-1.67-.26-.39-.85-1.47.16-.26,1.67-.69,1.86-.62-.23-1.9.36-3.02-.41-1.39.9-2.01.67-.77,1.13,1.36.15,2.52-.13,3.15-.99,2.13-.4,1.68-.26,1.82-.43.07.08,2.75-.75,1.16-.28,3.91-1.02,4.64-1.1.96-.7.42-.2.13-.21.41-.3,2.44-.86,2.32-.55,2.6.61-.8,2.17-1.08,1.01-1.19,1.32-.62-.23-1.59.47-2.52.13-1.7.78-.77,1.13,1.09,1.81-1,1.75-.82-.65-.08-.74-1.44-.88-3.48.83-3.48.83-4.45,1.53-.57,1.55-4.57-.99-2.94.32-3.48.83-4.45,1.53-3.29,1.25-2.71-.3-1.78.05-1.81,1.09-3.29,1.25-6.49,3.24-1.08,1.01-.62-.23-.23.62-1.05-.03-1.9.36-3.68.4-4.87,1.72-5.61,1.8-5.95,2.73-1.08,1.01-.62-.23-2.66,1.48-3.94,2.07-1.19,1.32.62.23.38-.12.35.04,3.41-1.2,1.04-.32.42-.2,6.26-2.62,3.06-.63-2.35,1.6-3.63,2.18-2.78,1.79-4.9,2.77.39.85,2.44-.86,2.52-.13-.23.62,2.17.8,1.55-.51,2.92-.51,1.64-.24.13-.14.3-.06,3.68-.4,1.65-.45.67-.1.43-.2,2.09.07-1.73,1.83-1.08,1.01-.62-.23-2.01.67-1.31,1.63-1.47.16-3.79.71-1.5,1.21-2.01.67-3.29,1.25.15-1.36-1.47.16-1.08,1.01.93.34-1.08,1.01-3.29,1.25-.57,1.55.2.43,1.67.26,6.23-1.57,10.87-2.67,5.18-1.61,5.41-2.23,1.08-1.01.62.23.23-.62.62.23.23-.62.62.23,3.4-1.56,3.69-1.46.02.02,2.32-.55,1.9-.36,2.32-.55,3.06-.63.09-.12.33-.08,7.58-1.42,1.98.38-1.19,1.32-4.13,1.64-4.45,1.53-5.1,2.34-.88,1.44.93.34,7.04-.92,5.07-1.3,4.45-1.53,2.97-1.37,3.29-1.25,4.79-2.46,3.6-1.14.47,1.59,1.67.26,1.08-1.01-1.01-1.08.65-.82,1.99-.67h.02s1.59-.46,1.59-.46l.39-.21,1.55-.53.07.07,3.27-1.03,4.23-1.12,1.53-.51.05.04,4.02-1.33.27-.14.15-.05,1.99-.68.02.02,1.32-.48,1.11-.38,5.3-1.92,3.6-1.14,1.59-.47,4.24-1.53.63-.19,3.17-.94,1.94-.6,2.81-.81,2.67-.79.07.05,2.01-.67,1.7-.78,2.94-.32.77-1.13,1.59-.47,2.71.3.65-.82,1.47-.16,1.59-.47.57-1.55-.51-.54,1.27-.59-.34.93,1.44.88,1.81-1.09,2.09.07.77-1.13,1.36.15.57-.26.17.18,1.39-.9,1.78-.05,3.09-1.68,1.05.03.49-.17.25.09,1.7-.78,1.42-1.94,1.67.26,1.27-.59,2.21-.24.32-.4.71.26.74-.08.95.51-1.19,1.32-2.55,1.17-.43.2-3.61,1.48-2.38.88-.15-.06-1.27.59-2.89,2.1-.47.44-.26-.36-1.27.59-.88,1.44.35.77-.11,1.44-.59-1.28-.27-.22-.43-.75-1.36-.15-1.81,1.09-1.03,2.79-1.67-.26-.32.11-.42-.03-.81.47-.89.31-.03.21-.51.29-2.66,1.48-2.47,1.91-.88,1.44,1.55.57.51.54-.13.14h0s0,.01,0,.01l-1.59,1.68.02.16-.13.15.16.13.03.29h.32s.3.23.3.23l3.48-.83,1.19-1.32.93.34h.12s-.26.14-.26.14l-2.13.98-1.08,1.01,8.12-1.93.77-.13-1.52,1.42-3.63,2.18-1.27.59-2.16,2.02-2.06-1.11-1.16.28-1.52.61-1.34.44-.48.29-1.22.49-.38.56-.04-.37-.34.93.51.54-.34.93-.74.08-1.67-.26-.08-.74-.93-.34-2.01.67-3.71,1.45-3.17.94-5.49,1.49-2.94.32-2.7,2.53-2.94.32-2.86,1.06-3.2,1.99-.15,1.36,2.09.07,4.02-1.33,1.78-.61,3.37-1.03.04.04,8.35-2.55,5.92-1.69,2.81-.6,2.45-.27,3.35-.87.13.05,2.01-.67,2.69-.8.05.05,2.16-.68,2.6-.73,6.46-2.19,3.68-.4.27-.12,2.36-.31.14,1.3h0s0,0,0,0l.02.17,1.44.88-.49,2.29,1.01,1.08,1.67.26,3.63-2.18.77-1.13-3.22-.84.76-.85,4.08-1.04,3.6-1.14,3.09-1.68,1.17-.54v.43s-.17,2.4-.17,2.4l1.55.57,1.5-1.21.69-1.86,1.11-2.06-.35-.28,2.99-1.37,3.09-1.68.75-2.01h.08s2.86-1.04,2.86-1.04l5.38-1.18,2.52-.13,3.17-.94,3.09-1.68,1.67.26.96-.7,1.7-.78.74-.08,3.42-1.38.26-.09.03.03,1.79-.68,3.87-1.2,4.28-1.14.13-.08,1.45-.39,4.45-1.53,5.3-1.92,5.72-2.11,4.02-1.33,1.16-.28,3.48-.83,2.32-.55,5.18-1.61,3.79-.71-.26,1.67,1.11.18-.63.19-1.22.43-4.36,1.4-.03-.03-1.59.47-.96.39-1.47.47-3.25,1.29-.04-.04-.23.08-.03-1.07-1.86-.69-1.16.28-.23.62-.62-.23-.23.62-.62-.23-.23.62-.62-.23-.54.51-1.19,1.32.61.95-1.2.44-4.02,1.33-1.63.6-.8.26-1,.41-2.29.84.07.06-.31.13h-.18s-1.27.59-1.27.59l-1.08,1.01.93.34,2.21-.24.88-.1.16.13,2.63-.44,7.31-2.42h.01s3.06-.62,3.06-.62l3.71-1.45.18-.29.23-.08,2.63-.44-.34.93,1.13.77,1.39-.9,1.19-1.32-.7-.96.23-.62.59-.1-.26.38,1.78-.05,1.7-.78-.17-.36.68-.31.9-.3-.14.39.62.23,3.91-1.02,5.18-1.61,6.34-1.88,2.63-.44,4.02-1.33,1.78-.05,3.06-.63,3.91-1.02,2.63-.44,1.08-1.01,1.36.15,1.36.15.96-.7,2.94-.32-1.19,1.32h-2.83s-1.19,1.33-1.19,1.33l-2.01.67-3.29,1.25-2.01.67-4.22.91-1.72.62-.39-.86-1.55-.57-.42.2-1.93,1.4-.56,1.51-3.47,1.03-5.18,1.61-15.85,4.7-4.02,1.33-4.33,1.22-1.81,1.09.16,1.47,1.36.15,1.78-.05-.77,1.13-1.16.28-3.29,1.25-1.27.59-2.09-.07-1.19,1.32-5.72,2.11-5.3,1.92-4.45,1.53-5.18,1.61-4.45,1.53-5.72,2.11-4.45,1.53-6.46,2.19-5.49,1.49-5.3,1.92-4.45,1.53-.35.12-.81.15-3.1,1.23-.61.22-1.05.36-.11-.09-3.29,1.25-2.97,1.37-1.99.68-.02-.02-2.44.86-4.66,1.5.19-.14-.39-.85-1.16.28-.26.15-.17.05-.12.11-1.91,1.08-1.06.49-.23.24-1.16.66-.22.32-5.36,1.65-3.6,1.14-11.21,3.6-4.02,1.33-2.21.24-1.73,1.83-4.22.91-3.51,1.87-2.13.98-.77,1.13,2.94-.32,1.67.26,1.31-1.63,5.18-1.61,1.19-1.32,1.27-.59,3.48-.83,4.02-1.33,3.17-.94,6.77-2.08,4.99-2.03,1.9-.36,1.02-.36.32.34,1.39-.9.12-.09,6.47-2.24,4.33-1.22,2.29.49.88-1.44,7.19-2.27,2.12-.98,2.01-.67,2.01-.67,1.78-.05-.69,1.86.08.73.67,2.01-.02.46-1.82.47-3.4,1.56-1.08,1.01-.62-.23-3.06.63-2.66,1.48-4.53.79-4.02,1.33-4.45,1.53-4.56,1.84-3.6,1.14-2.27,2.33-1.27.59-1.96,2.45-.46,1.24,1.55.57,1.59-.47,2.15-.42-.5,1.9-.96.7-1.36-.15-.7-.96-1.13-.77-1.7.78-1.34,2.68.4,3.68.62.23,1.08-1.01.82.65-.95,3.53-.53,3.33,1.44.88.85-.39,1.55.57-.23.62.36,1.9-.88,1.44-.8,2.17.13,2.52,1.01,1.08,1.5-1.21.8-2.17.15-1.36.38-1.98,1.73-1.83.49-2.29-1.09-1.81-.87-5.26.95-3.53,1.03-2.79.88-1.44.2-.37,1.36-.27,4.87-1.72,6.11-1.26,8.07-3.71,2.32-.55,3.17-.94,3.99-.29,4.56-1.84,3.32-2.3,4.02-1.33,4.41-.48,1.62-1.52,3.37-.52,1.93-1.4,2.09.07,1.03-1.4.12,2.34,1.36.15.88-1.44v-1.99s.78-.35.78-.35l2.94-.32,3.48-.83,4.87-1.72,2.58-2.22,3.56-.09,2.24-1.29,1.47-.16,2.01-.67,3.06-.63,1.62-1.52,1.05.03.96-.7,2.52-.13,1.62-1.52,1.59-.47,2.78-1.79,2.32-.55,1.7-.78,2.43-.86,3.91-1.02,2.58-2.22.69-1,.75-.07.09.03,2.21-.24,1.53-.3.23.09v-.13s5.09-1,5.09-1l7.27-1.54,7.27-1.54,10.02-2.28,4.22-.91,2.59-.46.04.03,2.63-.44.58-.17.58-.1,2.01-.67,1.59-.47,2.16-.68,2.12-.59.06.06,3.46-.97,2.03-.52,3.1,1.15,1.59-.47.42-.27.86-.32,1.04-.91.46-.3.28-.35,1.34-1.17,1.9-.36,1.63,1.31,2.48.92.54-.51,1.15-3.1,3.48-.83,2.58-.48.05.05,6.42-1.15,1.97-.33.23.09,5.15-.56.18-.08.28-.03.42,1.33,1.13.77,2.16-2.02.09-.39,8.02-.32.88-.1,2.37-.11,5.57-.76,2.42-.51,4.42-.83.43-.2,6.46-1.13,4.53-.71,4.37-.58-.96.7-3.55,2.92-2.66,1.48-4.02,1.33-4.22.91-5.07,1.3-1.24.48-.77.18-3.29,1.25-3.09,1.68-.42.2-.43.2-3.48.83-7.16,1.23-.88,1.44,2.48.92,2.52-.13.7-.23.46-.05,5.96-2.02.07.03.79-.24,2.57-.28,1.78-.05.21-.1,1.99-.14,5.49-1.49,3.17-.94,5.49-1.49,3.56-.09,1.27-.59,2.32-.55,3.22.84,1.59-.47,2.97-1.37,3.66-3.23,3.01-2.41.37-.32,1.14-.89.14-.2.94-.81,2.24-1.29,4.41-.48,3.25-.21,5.26-.87.03-.07,1.13-.2.12-.06,2.93-.57,5.77-.33,1.08-1.01-1.24-.46-3.33-.53-3.18-.47-.47-.17-2.71-.3-4.18-.14-1.95-.42.52-.76.54-.55,1.61-1.17,3.95.76,1.58-.47,3.12-2.72,1.49-4.03.07-2.09-.08-.17v-.57s.53-4.1.53-4.1l.21-.02,6.85-1.34,7.27-1.54,7.27-1.54,10.02-2.28,4.22-.91,2.59-.46.04.03,2.63-.44.58-.17.58-.1,2.01-.67,1.59-.47,2.16-.68,2.12-.59.06.06,3.46-.97,2.03-.52,3.1,1.15,1.59-.47.42-.27.86-.32,1.04-.91.46-.3.28-.35,1.34-1.17,1.9-.36,1.63,1.31,2.48.92.54-.51,1.15-3.1,3.48-.83,2.58-.48.05.05,6.42-1.15,1.97-.33.23.09,5.15-.56.18-.08,3.5-.32,8.59-.34.88-.1,2.37-.11,5.57-.76,2.42-.51,4.42-.83.43-.2,6.46-1.13,4.53-.71,4.37-.58-.96.7-3.55,2.92-2.66,1.48-4.02,1.33-4.22.91-5.07,1.3-1.24.48-.77.18-3.29,1.25-3.09,1.68-.43.2-.43.2-3.48.83-7.16,1.23-.88,1.44,2.48.92,2.52-.13.7-.23.46-.05,5.96-2.02.07.03.79-.24,2.57-.28,1.78-.05.21-.1,1.99-.14,5.49-1.49,3.17-.94,5.49-1.49,3.56-.09,1.28-.59,2.32-.55,3.22.84,1.59-.47,2.98-1.37,3.66-3.23,3.01-2.41.37-.32,1.14-.89.14-.2.94-.81,2.24-1.29,4.41-.48,3.25-.21,5.26-.87.03-.07,1.13-.2.12-.06,2.93-.57,5.77-.33,1.08-1.01-1.24-.46-3.33-.53-3.18-.47-.47-.17-2.71-.3-4.18-.14-1.95-.42.52-.76.54-.55,1.61-1.17,3.95.76,1.59-.47,3.12-2.72,1.49-4.03.07-2.09-.08-.17v-.57s.56-4.38.56-4.38l-1.01-1.08-2.08-1.77-.05-.08-1.91-1.77-2.75-2.78.15-1.36,1.9-.36,1.85-2.14.15-1.36-1.75-1-1.57,1.06-.87.52-1.27-.14.15-1.36-.82-.65-1.59.47-2.09-.07-.08-.74,1.46-2.99,1.19-1.32.28-.52.26.02.57-1.55-.62-.23-2.32.55-2.71-.3.23-.62-.08-.74.15-1.36-.93-.34-.85.39-1.19,1.32-1.5,1.21-1.67-.26.79-5-.39-.85-1.83-1.73-.9-1.39-1.01-1.08.65-.82,1.05.03,1.74.06.66.13,2.48-.02h.35s.55,0,.55,0l4.05-.04,1.47-.16,4.41-.48,1.47-.16,2.53-.47,2-.32.21-.1.95-.18,6.19-.53,2.01-.67,3.78-3.54.54-.51.18-.82.4-.73-.13-2.52-.09-3.56-.34-.56-.05-.29-.45-.55-.25-.42-.21-.14-2-2.44-2.3-3.32-.98-2.12-.21-3.25-2.91-.72-1.52-1.62-2.34-5.1-2.72-3.12-1.64-4.14-1.94-1.42-.59-1.27-.83-3.48-1.44-.88-1.16.28-2.17-.8.69-1.86,1.15-3.1-.83-3.48-1.4-1.93-2.14-1.85-7.13-2.64-2.06-1.11-1.32-1.19-.08-.74,7.12-.18,10.88.15,9.13-.85,4.3-.17,7.28,1.29,2.01-.67.02-.05.41-.14.69-1.86-.39-.85-2.56-1.65-2.17-.8-1.05-.03-5.7-1.76,1.19-1.32.68-.09h.06s4.84-.66,4.84-.66l11.11-.47,3.15-.28.1.08,4.41-.48,3.45.22,3.14.1.77-1.13-1.55-.57-2.82-.18-3.65-.45h0s-1.35-.15-1.35-.15l-8.36-.28-7.86.26-5.85-.4-3.33-.53-20.5-6.54-1.36-.15-1.27.59-4.05,2.38-3.82,1.76-3.29,1.25-2.4-.18,1.23-2.37,1.96-2.45,3.32-2.3,5.52-2.54,4.99-2.03,1.32-.48,1.11-.38.09-.05,2.77-1,4.76-1.41,6.77-2.08,4.68-2.15,3.94-2.07,3.12-2.72,3.93-4.89.92.24.32.22,1.98.38,2.43-.86.69-1.86-.39-.85-3.22-.84.46-1.24,1.61-4.34,1.11-2.06,1.47-.16.57-.26,1.02-.21-.17-.18.28-.13-.54-.14-.08-.09-2.6-.61-.16-1.47-.93-.34-2.27,2.33-1.81,1.09-4.15-1.18-.59-1.27.8-2.17.74-.08,9.33-.42,6.31-.84,7.66-.69h7.48s.26.05.26.05l4.61-.06,2.29-.21.23.08,5.15-.56h0s.73-.08.73-.08l6.73-1.03,6.54-1.46,3.46-.85.02.02,7.39-1.85,2.42-.21.1.08,1.61-.23,2.06-.18.06-.02.68-.06.31-.18.11-.02-.02-.04.41-.23.89-.31.09-.25.45-.26,1-1.75-1.44-.88-4.1.6ZM723.27,83l.93.34.28,1.16-.49,2.29-1.24-.46-.9-1.39.15-1.36,1.27-.59ZM718.08,81.78l.31.11-.03,1.05-.93-.34.65-.82ZM285.58,126.12l-2.24,1.29-1.98-.38.34-.93,1.7-.78,1.08-1.01,1.55.57-.46,1.24ZM295.26,127.59l-1.27.59-1.13-.77,1.7-.78.93.34-.23.62ZM299.78,126.8l-1.67-.26,1.08-1.01.93.34-.34.93ZM198.46,200.32l-.2.09-.75-.61-1.08,1.01.56.21-1.62.97-.99.11.35-.51-.81-.3,1.25-2.55,2.17.8,1.36.15-.23.62ZM202.17,198.87l-.1.05.31-.84-.74.08-.23.62.53.19-1.68.77-.95.18.38-1.98,1.14-.38,1.69.37-.34.93ZM146.06,262.7l-3.2,1.99-1.44-.88.65-.82,3.29-1.25.93.34-.23.62ZM46.68,337.65l-.54.51-.85.39-.31-.11-2.55,1.17-2.49,1.02-1.64.63-.85.39-2.13.98-3.48.83.05-.05.38-.15.11-.31.54-.51,4.53-2.08.03.25,8.07-3.71,1.9-.36-.77,1.13ZM49.95,341.68l-.15-.06.23-.62.47.17-.54.51ZM55.98,341.1l-.23.62-1.86-.69,1.78-1.1.65.24-.34.93ZM60.2,340.19l-1.55-.57-1.47.16.34-.93,2.01-.67,1.44.88-.77,1.13ZM63.17,338.82l-.62-.23.23-.62.62.23-.23.62ZM63.63,337.58l-.93-.34,1.08-1.01.62.23-.77,1.13ZM91.6,323.97l.57-.26.59-.02,6.37-2.93,3.29-1.25,2.75-1.42,1.04.71-.88,1.44-3.71,1.45-3.29,1.25-3.17.94-1.78.05-.23.62-.58.14-.15-.06-1.9.36,1.08-1.01ZM110.25,323.13l-1.47.16-1.81,1.09-3.6,1.14-4.64,1.1-4.87,1.72-3.48.83-4.02,1.33-4.76,1.41-5.92,1.69-3.51,1.87-1.63-1.31.54-.51,2.32-.55,1.81-1.09,2.86-1.06,4.05-2.38.2-.53.46-.29,1.47-.16.23-.62,2.09.07-2.66,1.48.82.65.85-.39.31.11.33-.41.21-.1,2.21-.24,2.44-.86,4.02-1.33,3.29-1.25,3.48-.83,4.84-.68,2.66-1.48,1.24.46-.34.93ZM112.59,315.89l.34-.93,3.4-1.56.62.23-1,1.75-1.81,1.09-1.55-.57ZM115.55,321.22l-.54.51-1.67-.26.38-1.98,1.59-.47.93.34-.69,1.86ZM99.79,360.87l-5.41,2.23,1-1.75,1.59-.47,3.37-.52-.28-.3.27-.06.74.28,1.59-.47-2.86,1.06ZM111.53,353.93l-1.55-.57-.34.93-1.16.28-1.36-.15.46-1.24.62.23,1.78-.05.46-1.24,1.67.26.2-.11.3.65-1.08,1.01ZM126.25,348.46l-2.01.67.13.13-.08.03-.48.03-2.01.67-.41.45-.13.05-.37.04-.25-.27-3.37.52-1.9.36-.28,1.48-.4.38-2.17-.8,2.24-1.29,4.14-1.64v-.18s.42-.12.42-.12l.31.21,2.72-.81.76-.02.09-.23,1.19-.35,3.79-.71-.33-.23.45-.08.63-.19-.32.3.74-.08,1.36.15-4.45,1.53ZM59.13,450.53l-2.09-.07-.54.51-1.81,1.09.23-.62-.13.16.17-.79.16-.24.57-.26,1.05.03.04-.1.7.02,1.31-1.63,1.36.15.54-.51.41-.04-.13,1.2-1.81,1.09ZM60.54,464.81l-.6.27.09-.81.73-.08-.23.62ZM67.21,446.82l-.57,1.55-.31-.11-.31-.11-1.75-1,.77-1.13,1.05.03,1.62-.57-.27.72.82.65-1.05-.03ZM68.07,449.26l-.54-.44.15-.41.62.23-.23.62ZM69.29,456.42l-1.43.66-.77-.42,1.42-1.94-1.55-.57.92-2.48.7-.17.23.51-.8,2.17,1.75,1-.46,1.24ZM76.05,451.51l-1.23.56-.86-.63.15-1.36-1.68.59.13-1.17-2.44.86-.93-.34-.31-.11.34-.93,1.55.57.88-1.53,1.02.22-.08.22,2.29.49.76-.49,1.1,1.18-.69,1.86ZM81.46,449.29l-1.56-.25v-.33s-.07-.01-.07-.01l.11-1.03.62.23,1.13.77-.23.62ZM79.9,458.23l.11-.31.17-.04-.28.35ZM84.29,454.24l-.07-.04.59-.86.07.04-.59.86ZM87.38,450.43l-1.29-.32.4-1.07.33-.04.91.5-.34.93ZM88.52,454.02h-.08s-.62-.96-.62-.96l.2-.54.84.58-.34.93ZM90.36,449.06l-.42.05-.2-.28.48-.6.37.21-.23.62ZM92.23,452.58l-.99.24.06-.58,1,.16-.07.19ZM93.42,451.26l.11-.31.84-.2-.03.86-.93-.34ZM177.23,457.3l-2.01.67-.93-.34.77-1.13,2.12-.98-.05-.05h.03s.56-.03.56-.03l.13.07.25.35-.88,1.44ZM176.82,460.75l.12-.74.14-.07.17.18-.43.63ZM179.92,451.94l.34-.93-1.13-.77.02-.52.33-.41,1.58-.56.25,2.29-1.39.9ZM515.91,419.6l-.37-.38.98-.27,4.33-1.22.51.54-2.97,1.37-.43.2-1.06.66-.98-.91ZM517.85,413.38l-1.49.41.7-.81.15-1.36-.36-.21,1.95-.58-1.2,1.64.25.91ZM312.78,449.37h-.35s.1-.27.1-.27l.25.27ZM310.34,450.23l-.4-.15.37-.12.03.26ZM144.46,332.64l1.01,1.08-.65.82-1.13-.77.77-1.13ZM140.72,335.12l.11-.29.32.07-.43.22ZM142.71,335.29l-.7,1.29-.6-.48,1.3-.81ZM164.18,318.44l.62.23,2.06,1.11.28,1.16-1.27.59-2.48-.92-.11.31-1.75-1,.15-1.36,2.52-.13ZM162.84,314.95l-.21.1-1.13-.77,1.99-2.2.71-.33.62.23-.92,2.48-.21.1-.52-.02-.33.41ZM173.27,307.05h0s.01-.03.01-.03v.03ZM215.32,228.08h-.41s.49-.22.49-.22l-.08.22ZM210.31,239.46l-.93.87h-.01s.46-1.24.46-1.24l.71.26-.23.11ZM397.06,437.95l-1.31,1.63-1.98-.38.05-.47h.04s2.69-.81,2.69-.81l.05.05.49-.16-.05.13ZM385.62,442.17l-2.21.24.56-1.51.44-.09-.12.17,1.24.46.35-.95h.04s2.37-.27,2.37-.27l-.12.78-2.55,1.17ZM177.2,310.93l-.93-.34.34-.93.62.23-.03,1.05ZM220.1,241.84l.62.23-.15,1.36-.62-.23.15-1.36ZM373.09,121.22l1.65-.49.88.33-.96.7-1.78.05.22-.58ZM507.76,83.31l-2.13.98-.81.37.82-1.59.62.23,1.59-.47,3.33-.87-.14.1-3.28,1.25ZM491.93,87.26l.96-.3.1.04.03-.08,2.69-.84,3.48-.83,3.17-.94,1.46.79-1.17.54-.43.2-.22.59-.44.23-4.13,1.64-5.15.56-1.13-.77.75-.83ZM502,396.29l-.23.62-.65.24.45-.66-.93-.34-1.27.38-.3-.29,1.69-.4.29-.18.42-.12.02.22.51.54.77-1.13-.03,1.05.14.11-.87-.03ZM504.24,395.01l.54-.51.16-.15.17-.03.17.72-.43.32-.61-.35ZM188.44,302.38l-.48-.51,1.26-.76.58-.27.36.79-1.47.67-.26.08ZM391.73,439.34l.13.05.1-.03-.42,1.13-1.67-.26.07-.42,1.79-.47ZM398.77,437.29l.85-.24.18.15-.77,1.13-1.12-.77.85-.27ZM202.05,259.13l-.53-.19.6-.28-.07.47ZM170.53,319.39l.77-.35h.16s1.16.42,1.16.42l1.16-.28,2.17-.36.23.04-1.48.49-5.12,1.59.29-1.51.15-.07.52.02ZM174.94,306.56l.03-1.05.31.11-.34.93ZM147.82,332.13l.31.11,1.44.88-.98,1.22-.64.29-1.4-1.93,1.27-.59ZM160.21,331.08l1.08-1.01.45.17-.82.59-.63.24h-.08ZM179.38,318.04l1.1-.26,1.09.4-.77,1.13-1-.19-.26-.44-.44-.09.39-.48-.09-.07ZM365.19,443.06l.62.23,1.47-.35-.56.52-1.75.19.22-.6ZM667.56,37.31l.62.23.23-.62,2.01-.67,3.29-1.25,5.18-1.61,1.54-.38.67.14,2.75-.75,3.37-.52-.96.7-3.29,1.25-2.13.98-2.97,1.37-.42.2-.22.59-.44.23-4.14,1.64-5.15.56-1.13-.77,1.19-1.32ZM548.3,71.73l1.59-.47.93.34-.96.7-1.78.05.23-.62ZM533.41,75.73l6.23-1.57,4.22-.91-.54.51-4.45,1.53-5.61,1.8-1.23.41-2.03-.75,3.41-1.01ZM377.13,93.36l-.49.22-2.69.8,1.93-.89,1.25-.14ZM373.47,94.52h0s-2.51.71-2.51.71l.9-.41,1.61-.3ZM355.62,98.68l1.93-1.4,1.78-.05.34-.93.85-.39,1.13.77-.77,1.13-1.9.36-2.7,1.46-.26.07-.23.11-.53-.19.34-.93ZM305.6,128.25l1.47-.16.08.74-1.27.59-1.36-.15,1.08-1.01ZM305.65,132.85l-1.55-.57-.2-.43,1.08-1.01,1.55.57-.88,1.44ZM309.67,131.52l-1.67-.26.77-1.13,1.24.46-.34.93ZM311.48,127.61l-.93-.34,1.27-.59.62.23-.96.7ZM329.07,123.9l-1.47.16.34-.93.85-.39.62.23-.34.93ZM212.92,206.03l.85-.39.82.65-.65.82-1.36-.15.34-.93ZM211.27,189.55l.62.23-.34.93-1.05-.03.77-1.13ZM199.46,249l-1.47.16.23-.62.31.11.6-.38.36-.11.2.22-.23.62ZM202.01,247.83l-1.47.16.77-1.13.93.34-.23.62ZM207.66,247.81l-.42.2.11-.31-.42.2-1.78.05-.08-.74,1.19-1.32,1.86.69-.46,1.24ZM212.3,246.71l-.85.39-1.55-.57.26-1.67,1.28-.59,1.44.88-.57,1.55ZM215.55,246.5l.34-.93.85-.39.62.23-.88,1.44-.93-.34ZM174.72,300.49l2.29.49.9-.21.88.17-.2.53-.59.32-1.54-.3-2.13.98.31.11-2.29-.49.03-1.05,2.32-.55ZM149.39,285.1l5.72-2.11-.08-.08.63-.19.18.2,1.59-.47-.34.93h-.42s-.2-.23-.2-.23l-.43.2-3.81,1.41-1.48.51-.22.12-.2.08-.35.22-.71.39-1.07.37-1.78.05,2.97-1.37ZM120.65,318.88l-1.16.28-.51-.54,1.08-1.01.93.34-.34.93ZM126.3,318.85l-2.09-.07-1.93,1.4-.62-.23,1-1.75-.62-.23.34-.93,1.08-1.01,3.17-.94.62.23.28,1.16.05,1.78-1.27.59ZM134.49,314.84l.15-1.36,1.13.77-1.27.59ZM143.88,312.33l-1.36-.15.77-1.13,1.24.46-.65.82ZM158.77,308.32l-3.29,1.25-1.67.98-2.89.86-1.67-.26,1.03-2.79-.51-.54-.16-1.47-.62-.23-3.48.83-.14.07-.59.02-.11.31-.43.2-3.48.83-1.08,1.01-2.29-.49-3.17.94-3.33-.53-1.16.28-1.73,1.83-1.21-1.5h-.21s-.1-.11-.1-.11l-.74.08-2.24,1.29-.69,1.86-2.29-.49.03-1.05,1.7-.78,3.29-1.25,2.24-1.29-.09-.19.2-.12,3.79-.71,4.25-1.95,4.02-1.33,3.68-.4.54-.51,1.7-.78-.2-.16.32-.15,1.94,1.42,4.13-1.64-.19-.15,1.42-.45.35.13,1.59-.47,2.32-.55.02-.06,1.56-.41.76-.35.34.23.45.69,2.09.07.88-1.44.62.23.65-.82,1.98.38.32-.15,2.08.33-.88,1.44-4.64,1.1-2.66,1.48-1.9.36-4.95.99-.77,1.13,2.6.61-.15,1.36,1.24.46.72-.04.33.07.07-.09,1.4-.07-.96.7ZM163.44,306.18l-1.55-.57-1.44-.88,1.08-1.01,2.94-.32.54-.51,1.78-.05.85-.39,3.06-.63.62.23-.26,1.67-1.16.28-1.19,1.32,1.44.88.34-.93.73-.08,2.17.8-.09.85-.78-.62-.85.39-.02.51-1.32-.49-1.08,1.01h-.03s.55-.67.55-.67l-.62-.23-.85.39.73.59-1.74.58-2.41-1.21.34-.93,1.16-.28,1.5-1.21-2.63.44-1.81,1.09ZM143.19,323.71l2.13-.98,2.75-.75,1.78-.05,1.9-.36,3.06-.63,1.5-1.21,2.71.3.04.37-.07.68,1.32,1.19-.34.93-.93-.34-1.39.9-1.48,2.29-.49.16-.93-.34.26-1.67-1.78.05-.36.34h-.12s-.25-.26-.25-.26l-.42.2-1.31,1.63-.62-.23-2.94.32-.65.82-1.01-1.08-2.99-1.46.65-.82ZM135.08,337.98l.23-.62.85-.39.31.11.85-.39,1.12.69-.13.22.58.21.03,1.23-1.47.16-2.37-1.23ZM182.18,456.31l-1.42.47-.67-.54.77-1.13,1.59-.47-.19-.21.31-.1.2.42-.57,1.55ZM188.55,441.04l-1.44.66.09-.81,1.59-.47-.23.62ZM181.85,471l.05-.47h.26s-.31.47-.31.47ZM195.28,440.16v-.15s.18-.11.18-.11l-.18.26ZM216.3,460.46h-.02s.41-.52.41-.52v.35s-.39.18-.39.18ZM228.59,476.18l.77-.61h.02s-.69.65-.69.65l-.09-.03ZM248.97,479.5l-.23.62-.62-.23-.23.62-.62-.23-1.24.57-1.26-.27.77-1.13,4.02-1.33.71-.19,1.05-.03-.65.82-1.08,1.01-.62-.23ZM285.57,459.02l-.99.64.68-.75-.62-.23-3.06.63-.23.62-.62-.23-2.32.55-.23.62-.62-.23-.54.51.39.85,3.79-.71,2-.74-.42.27-2.13.98-3.91,1.02-4.02,1.33-1.5,1.21-2.21.24-3.91.86-2.19-.81-4.53.79-.07-.03,1.65-.51,2.89-.81,1.7-.78.59-.06.65.52.27-.25.16.06,1.31-1.63,2.01-.67,4.33-1.22,4.76-1.41.03-.07.4-.12-.08-.18,2.63-.78.2.22,4.45-1.53-.06-.13.58-.18.22.23.19-.07-1.62,2.01ZM326.81,445.75l-.23.62-.65.24.45-.66-.93-.34-1.59.47-.85,1.37-1.08.03-.65.61-.82-.45-.68.27-.99-.53-3.71,1.45-1.46,2.99-.85.39h-2.83s-4.64,1.11-4.64,1.11l-6.03,2-1.47.16-.74.08-2.13.98-4.45,1.53-.1-.02.02-.72-1.36-.15-.27.25-.04-.37-.84-.31,2.35-.89-.05-.11,2.22-.76,1.42-.27,1.89-.67-.31.2.93.34.95-.23-.64.34,1.13.77,4.87-1.72,8.04-2.66,2.94-.32.57-1.55-.45-.49,2.69-.8,5.18-1.61,1.97-.56,1.93-.46.29-.18.42-.12.02.22.51.54.77-1.13-.03,1.05.14.11-.87-.03ZM329.66,444.82l-.61-.35.54-.51.16-.15.17-.03.17.72-.43.32ZM380.67,443.16l-1.81,1.09-3.06.63-3.91,1.02-3.6,1.14-5.8,1.38-8.04,2.66-4.45,1.53-4.79,1.3,3.61-1.2,1.07-.37.09.09,3.29-1.25,2.04-1.71,1.19-1.32-.93-.34-1.16.28-.23.62-.62-.23-1.22.43-2.38.71-.16.12-1.37.41-.05-.05-2.01.67-.15.09-2,.64-1.94.6.87-.96-1.44-.88.54-.51,2.75-.75,6.23-1.57,6.96-1.65,2.86-1.06.84-.22-.98.36-3.2,1.99-.15,1.36,2.09.07,4.02-1.33,1.78-.61,3.37-1.03.04.04,8.35-2.55,3.12-.89-.05.43.62.23-.23.62ZM381.13,441.92l.11-.3,1.38-.39-.45.73-1.05-.03ZM330.79,464.51l2.12-.98,5.18-1.61,6.34-1.88,5.07-1.3,3.91-1.02,3.42-.48-.24,1-.9-.03-2.66,1.48-3.91,1.02-6.03,2-5.49,1.49-4.33,1.22-3.43.74.95-1.66ZM327.7,466.18l-.45.56-.09-.06.54-.51ZM330.23,477.19l-3.6,1.14-2.66,1.48-1.55-.57-1.67-.26-1.19,1.32-3.17.94-4.14,1.64-3.91,1.02-3.71,1.45-2.09-.07.57-1.55-1.67-.26-1.08,1.01.82.65-.65.82-1.27.59-4.76,1.41-1.93,1.4-2.44.86-7.08,1.96-.23.62-1.78.05-5.3,1.92-5.41,2.23-4.18.46-.06-1.16-.32-2.94.15-1.36,1.16-.28,4.87-1.72,4.76-1.41,5.18-1.61,7.08-1.96,4.45-1.53,1.67.26.96-.7,2.13-.98,4.33-1.22,6.34-1.88,5.61-1.8,6.34-1.88,1.05-.38-.03.25,1.13.77,1.16-.28,2.04-1.71.74-.08,1.7-.78-.52-.36,2.05-.68,3.6-1.14.05-.14.55.2,2.09.07,4.86-.77-2.11,1.32-1.6.85-2.31.88-.57-.46-.23.62h.43s-.21.59-.21.59l-.62-.23-.54.51v.3s-.23.32-.23.32l.2.22v.21s.17-.03.17-.03l.14.15,1.21-.4.38-.07.94-.1-6.06,2.27ZM344.62,468.45l1.31-.95.23.24-1.54.71ZM524.49,411.22l-.43-.94-1.31-.49,1.95-.5,3.91-1.02,4.53-.63h.02s.04,0,.04,0l.25-.03,1.75-.29-.51.75-1.7.78-2.09-.07-2.66,1.48-3.73.97ZM560.82,392.71l-2.21.24.57-1.55-.93-.34-.88,1.44-1.05-.03.23-.62-.93-.34-.15,1.36.62.23-.23.62-1.81,1.09-3.06.63-3.91,1.02-3.6,1.14-5.8,1.38-8.04,2.66-4.45,1.53-5.49,1.49-3.07.79-.89-.33-.42.2-.19.52-.48.12-.34.93.62.23.14-.04.81.55,1.27-.59.06-.53,1.62-.42,5.18-1.61,6.34-1.88,2.63-.44,4.02-1.33,1.78-.05,3.06-.63,3.91-1.02,2.63-.44,1.08-1.01,1.36.15,1.36.15.96-.7,2.94-.32-1.19,1.32h-2.83s-1.19,1.33-1.19,1.33l-2.01.67-3.29,1.25-2.01.67-4.22.91-4.02,1.45-.17-.38-1.55-.57-2.13.98-.25,1.28-1.94.57-5.18,1.61-12.31,3.65.11-.96-.82-.65-1.59.47-2.09-.07-.08-.74.27-.56.67-.31,1.08-1.01-.51-.54-.26-.16.2-.41,1.19-1.32.28-.52.26.02.57-1.55-.62-.23-2.32.55-1.86-.21.48-.11,5.18-1.61,3.79-.71-.26,1.67,1.67.26,1.19-1.32-1.44-.88.54-.51,2.75-.75,5.87-1.48,1.19.73,1.16-.28.68-1.18,4.29-1.02,2.86-1.06,3.91-1.02.23-.62.62.23,3.48-.83,3.48-.83,2.32-.55,1.47-.16,5.88-.64.74-.08.73-.4.55-.18,2.21-.24,1.78-.05-.26,1.67-2.55,1.17ZM566.73,391.02l-1.67-.26.26-1.67,1.59-.47.62.23-.8,2.17ZM572.26,388.49l-1.31,1.63-1.98-.38.15-1.36,2.44-.86.93.34-.23.62ZM574.23,388.87l-1.13-.77,1.08-1.01.82.65-.77,1.13Z" 
    fill="#badadb"
  />
  <path 
    d="M50.12,321.58c1.08-4.22,2.36-9.54,3.84-15.96,1.48-6.42,3.01-13.4,4.58-20.94,1.57-7.54,3.17-15.42,4.78-23.64,1.62-8.22,3.1-16.18,4.44-23.91,1.35-7.72,2.51-14.95,3.5-21.68.99-6.73,1.66-12.48,2.02-17.24.09-1.89.07-3.88-.07-5.99-.13-2.11-.07-4.18.2-6.2.27-2.02.9-3.95,1.89-5.79.99-1.84,2.74-3.39,5.25-4.65,3.05-1.53,5.84-2.2,8.35-2.02,2.51.18,5.25,1.08,8.22,2.69.63.36,1.26,1.35,1.89,2.96.63,1.62,1.23,3.5,1.82,5.66.58,2.15,1.12,4.42,1.62,6.8.49,2.38.96,4.42,1.41,6.13,1.08,4.13,2.98,9.29,5.72,15.49,2.74,6.2,6.13,13,10.17,20.41s8.6,15.27,13.67,23.57c5.07,8.31,10.42,16.61,16.03,24.92,5.61,8.31,11.36,16.41,17.24,24.31,5.88,7.9,11.69,15.22,17.44,21.95,2.42-9.34,4.53-18.23,6.33-26.67,1.79-8.44,3.43-16.72,4.92-24.85,1.48-8.12,2.9-16.21,4.24-24.24,1.35-8.04,2.69-16.36,4.04-24.98.72-4.4,1.48-9.31,2.29-14.75.81-5.43,1.57-10.91,2.29-16.43.72-5.52,1.32-10.86,1.82-16.03.49-5.16.78-9.63.88-13.4v-4.58c0-1.53.07-2.98.2-4.38.13-1.39.45-2.74.94-4.04.49-1.3,1.28-2.45,2.36-3.43,2.87-2.6,5.48-4.18,7.81-4.71,2.33-.54,4.8-.81,7.41-.81,1.26,0,2.42.72,3.5,2.15,1.08,1.44,2.02,3.14,2.83,5.12.81,1.98,1.46,4.02,1.95,6.13.49,2.11.79,3.79.88,5.05.09,1.17-.09,3.03-.54,5.59-.45,2.56-1.01,5.32-1.68,8.28-.67,2.96-1.37,5.88-2.09,8.75-.72,2.88-1.3,5.12-1.75,6.73-2.07,8.17-4.15,17.17-6.26,27-2.11,9.83-4.13,19.78-6.06,29.83-1.93,10.06-3.75,19.89-5.45,29.5-1.71,9.61-3.19,18.27-4.44,25.99-1.26,7.72-2.22,14.12-2.9,19.19-.67,5.07-.97,8.1-.88,9.09.09,1.35.16,2.88.2,4.58.04,1.71.07,3.39.07,5.05v4.71c0,1.48.04,2.63.13,3.43.18,2.16-.02,4.02-.61,5.59-.58,1.57-1.35,2.9-2.29,3.97-.94,1.08-2,1.95-3.17,2.63-1.17.67-2.25,1.19-3.23,1.55-1.17.36-2.52.67-4.04.94-1.53.27-3.03.4-4.51.4s-2.87-.11-4.18-.34c-1.3-.22-2.27-.7-2.9-1.41-3.41-3.23-6.26-6.35-8.55-9.36-2.29-3.01-3.79-5.95-4.51-8.82-.18-.9-.63-2-1.35-3.3-.72-1.3-1.5-2.6-2.36-3.91-.85-1.3-1.68-2.51-2.49-3.64-.81-1.12-1.48-2-2.02-2.63-5.84-7.54-11.58-15.17-17.24-22.9-5.66-7.72-11.34-15.94-17.04-24.65-5.7-8.71-11.47-18.05-17.31-28.01-5.84-9.97-11.9-20.88-18.18-32.73-2.52,8.98-4.76,18.54-6.73,28.69-1.98,10.15-3.77,20.11-5.39,29.9-1.62,9.79-3.05,19.06-4.31,27.81-1.26,8.75-2.34,16.23-3.23,22.43-.27,1.8-.4,4.02-.4,6.67v8.01c0,2.69-.09,5.23-.27,7.61-.18,2.38-.54,4.24-1.08,5.59-.45.99-1.15,2.16-2.09,3.5s-2.02,2.65-3.23,3.91c-1.21,1.26-2.51,2.31-3.91,3.17-1.39.85-2.76,1.28-4.11,1.28-2.61,0-4.65-.4-6.13-1.21-1.48-.81-2.63-2-3.43-3.57-.81-1.57-1.39-3.53-1.75-5.86-.36-2.33-.67-5.03-.94-8.08-.09-1.17.02-3.03.34-5.59.31-2.56.76-5.39,1.35-8.49.58-3.1,1.23-6.31,1.95-9.63.72-3.32,1.48-6.42,2.29-9.29Z" 
    fill="#5d716e"
  />
  <path 
    d="M380.77,280.91c0,7.09-1.8,14.64-5.39,22.63-3.5,8.08-8.04,15.58-13.6,22.49-5.57,6.92-11.45,12.66-17.64,17.24-3.5,2.61-7.34,4.87-11.52,6.8-4.18,1.93-8.55,3.5-13.13,4.71s-9.34,2.11-14.28,2.69c-4.94.58-9.92.88-14.95.88-3.5,0-6.92-1.12-10.24-3.37-3.32-2.24-6.29-4.98-8.89-8.22-2.61-3.23-4.69-6.69-6.26-10.37-1.57-3.68-2.36-7-2.36-9.97,0-7.27.96-14.25,2.9-20.94,1.93-6.69,4.53-13.15,7.81-19.4,3.28-6.24,7.07-12.34,11.38-18.32,4.31-5.97,8.89-11.92,13.74-17.85,2.69-3.32,5.77-6.58,9.23-9.76,3.46-3.19,7.07-6.04,10.84-8.55,3.77-2.51,7.59-4.56,11.45-6.13,3.86-1.57,7.54-2.36,11.04-2.36,5.75,0,11.33,2.02,16.77,6.06,5.43,4.04,10.3,10.15,14.61,18.32.9,1.71,1.84,4.02,2.83,6.94.99,2.92,1.91,6.02,2.76,9.29.85,3.28,1.55,6.46,2.09,9.56.54,3.1.81,5.64.81,7.61ZM361.92,280.91c0-1.62-.09-3.57-.27-5.86-.18-2.29-.49-4.65-.94-7.07-.45-2.42-1.06-4.78-1.82-7.07-.76-2.29-1.68-4.33-2.76-6.13-1.08-1.79-2.34-3.21-3.77-4.24-1.44-1.03-3.05-1.41-4.85-1.14-4.13-1.62-7.5-2.51-10.1-2.69-2.6-.18-4.63-.27-6.06-.27-1.08,0-2.25.34-3.5,1.01-1.26.67-2.56,1.6-3.91,2.76-1.35,1.17-2.72,2.54-4.11,4.11-1.39,1.57-2.76,3.21-4.11,4.92-2.69,3.5-5.19,6.69-7.48,9.56-2.29,2.88-4.44,5.72-6.47,8.55-2.02,2.83-3.97,5.79-5.86,8.89-1.89,3.1-3.77,6.58-5.66,10.44-.81,1.62-1.53,3.55-2.15,5.79-.63,2.25-1.17,4.56-1.62,6.94-.45,2.38-.79,4.76-1.01,7.14-.23,2.38-.34,4.51-.34,6.4,0,1.17.4,2.58,1.21,4.24.81,1.66,1.86,3.28,3.17,4.85,1.3,1.57,2.78,2.9,4.44,3.97,1.66,1.08,3.3,1.62,4.92,1.62,4.58,0,8.49-.2,11.72-.61s6.22-1.12,8.96-2.16c2.74-1.03,5.5-2.45,8.28-4.24,2.78-1.8,6.01-4.13,9.7-7,1.8-1.35,3.57-2.92,5.32-4.71,1.75-1.79,3.48-3.7,5.19-5.72,1.7-2.02,3.32-4.08,4.85-6.2,1.53-2.11,2.96-4.2,4.31-6.26.9-1.35,1.66-3.01,2.29-4.98.63-1.97,1.12-3.95,1.48-5.93.36-1.97.61-3.77.74-5.39s.2-2.78.2-3.5ZM430.74,323.33c0-7.54.65-14.95,1.95-22.22,1.3-7.27,2.74-14.21,4.31-20.81,1.57-6.6,3.01-12.68,4.31-18.25,1.3-5.57,1.95-10.42,1.95-14.55,0-1.35-.4-2.18-1.21-2.49-.81-.31-1.88-.47-3.23-.47-1.08,0-2.27.13-3.57.4-1.3.27-2.65.54-4.04.81-1.39.27-2.74.54-4.04.81-1.3.27-2.45.4-3.43.4-3.05,0-5.75-.02-8.08-.07-2.34-.04-4.31-.38-5.93-1.01-1.62-.63-2.83-1.7-3.64-3.23-.81-1.53-1.21-3.77-1.21-6.73,0-1.26.43-2.31,1.28-3.17.85-.85,1.93-1.55,3.23-2.09,1.3-.54,2.74-.92,4.31-1.14,1.57-.22,3.07-.34,4.51-.34,1.08,0,2.71-.11,4.92-.34,2.2-.22,4.53-.49,7-.81,2.47-.31,4.83-.61,7.07-.88,2.24-.27,3.9-.45,4.98-.54,1.44-.09,2.83-.83,4.18-2.22,1.35-1.39,2.51-3.03,3.5-4.92.99-1.89,1.82-3.82,2.49-5.79.67-1.97,1.14-3.64,1.41-4.98.45-2.42,1.01-5.45,1.68-9.09.67-3.64,1.41-7.32,2.22-11.04.81-3.72,1.68-7.27,2.63-10.64s1.91-6.04,2.9-8.01c1.08-2.16,2.33-3.79,3.77-4.92,1.43-1.12,3.23-1.68,5.39-1.68,6.38,0,9.56,3.46,9.56,10.37,0,4.13-.94,9.02-2.83,14.68-.54,1.8-1.17,3.95-1.88,6.46-.72,2.51-1.39,5.1-2.02,7.74-.63,2.65-1.17,5.14-1.62,7.48-.45,2.34-.67,4.22-.67,5.66,0,3.14,1.62,4.71,4.85,4.71,3.86,0,7.23-.04,10.1-.13,2.87-.09,5.7-.27,8.49-.54,2.78-.27,5.81-.67,9.09-1.21s7.29-1.3,12.05-2.29c3.86-.81,6.8-1.46,8.82-1.95,2.02-.49,3.79-.96,5.32-1.41,1.53-.45,3.12-.92,4.78-1.41,1.66-.49,3.97-1.15,6.94-1.95,0,.18.29.47.88.88.58.4,1.21.88,1.88,1.41s1.28,1.06,1.82,1.55c.54.49.81.88.81,1.15,0,1.53-.32,2.9-.94,4.11-.63,1.21-1.41,2.31-2.36,3.3-.94.99-2,1.86-3.16,2.63-1.17.76-2.34,1.46-3.5,2.09-5.75,2.52-12.1,4.49-19.06,5.93-6.96,1.44-13.8,2.69-20.54,3.77-4.49.72-8.53,1.35-12.12,1.89-3.59.54-6.71,1.12-9.36,1.75-2.65.63-4.87,1.33-6.67,2.09-1.8.76-3.1,1.77-3.9,3.03-.45,1.35-1.1,3.68-1.95,7-.86,3.32-1.8,7.03-2.83,11.11-1.04,4.09-2.04,8.28-3.03,12.59-.99,4.31-1.8,8.17-2.42,11.58-.36,1.62-.74,3.88-1.14,6.8-.4,2.92-.81,5.95-1.21,9.09-.4,3.14-.72,6.11-.94,8.89-.22,2.78-.34,4.85-.34,6.2.18,7.9,1.66,13.56,4.44,16.97,2.78,3.41,7.54,5.12,14.28,5.12,4.67-.27,9.07-.79,13.2-1.55,4.13-.76,8.37-2.04,12.73-3.84,4.35-1.79,9.04-4.2,14.07-7.21,5.03-3.01,10.82-6.85,17.38-11.52,1.97-1.43,3.88-2.94,5.72-4.51,1.84-1.57,3.57-2.98,5.18-4.24,1.62-1.26,3.14-2.31,4.58-3.17,1.44-.85,2.78-1.28,4.04-1.28,1.62,0,2.63.29,3.03.88.4.58.61,1.64.61,3.17,0,1.17-.43,2.61-1.28,4.31-.86,1.71-2.02,3.55-3.5,5.52-1.48,1.98-3.28,4.02-5.39,6.13-2.11,2.11-4.38,4.11-6.8,5.99-5.3,4.22-10.8,8.22-16.5,11.99-5.7,3.77-11.49,7.07-17.37,9.9-5.88,2.83-11.74,5.07-17.58,6.73-5.84,1.66-11.58,2.49-17.24,2.49-6.46,0-11.99-1.03-16.57-3.1-4.58-2.06-8.31-4.83-11.18-8.28-2.88-3.46-4.98-7.38-6.33-11.79-1.35-4.4-2.02-8.98-2.02-13.74Z" 
    fill="#5d716e"
  />
  <path 
    d="M709,268.52c0,1.35-.99,3.73-2.96,7.14-4.67,6.73-9.9,13.47-15.69,20.2-5.79,6.73-11.94,13.13-18.45,19.19-6.51,6.06-13.29,11.72-20.34,16.97-7.05,5.25-14.17,9.79-21.35,13.6-7.18,3.82-14.34,6.76-21.48,8.82-7.14,2.07-14.03,3.05-20.67,2.96-14.37,0-25.52-4.17-33.47-12.53s-11.92-20.96-11.92-37.85c0-14.1,2.18-27.79,6.53-41.08,4.35-13.29,11.79-26.08,22.29-38.39,1.97-2.15,4.2-4.22,6.67-6.2,2.47-1.97,5.07-3.73,7.81-5.25,2.74-1.53,5.57-2.74,8.49-3.64,2.92-.9,5.86-1.44,8.82-1.62.72,0,1.71.09,2.96.27,1.26.18,2.6.49,4.04.94,1.44.45,2.83,1.01,4.18,1.68,1.35.67,2.42,1.5,3.23,2.49,2.51,2.87,4.51,5.84,5.99,8.89,1.48,3.05,2.31,6.42,2.49,10.1.18,4.13-.29,8.19-1.41,12.19-1.12,4-3.01,8.08-5.66,12.26-2.65,4.18-6.13,8.49-10.44,12.93-4.31,4.44-9.52,9.23-15.62,14.34-3.86,3.23-8.15,6.8-12.86,10.71-4.71,3.91-10.39,8.01-17.04,12.32,0,8.71,2.63,15.33,7.88,19.87,5.25,4.54,12.46,6.8,21.62,6.8,5.12,0,10.28-.67,15.49-2.02,5.21-1.35,10.33-3.12,15.35-5.32,5.03-2.2,9.9-4.71,14.61-7.54s9.14-5.72,13.27-8.69c7.63-5.57,14.55-11.11,20.74-16.63,6.2-5.52,12.34-11.33,18.45-17.44l7.27-7.27c4.4-3.86,7.59-5.79,9.56-5.79,1.08,0,1.62.85,1.62,2.56ZM606.1,241.71c-.09-1.35-.29-2.67-.61-3.97-.32-1.3-.79-2.45-1.41-3.43-.63-.99-1.35-1.77-2.16-2.36-.81-.58-1.75-.88-2.83-.88-4.76.27-9.52,3.17-14.28,8.69-4.76,5.52-9.25,12.82-13.47,21.89-.99,1.98-1.87,4.2-2.63,6.67-.76,2.47-1.48,4.98-2.16,7.54-.67,2.56-1.26,5.1-1.75,7.61-.5,2.51-.92,4.76-1.28,6.73,4.67-3.5,8.98-6.73,12.93-9.7,3.95-2.96,7.63-6.01,11.04-9.16,2.15-1.97,4.35-4.11,6.6-6.4,2.24-2.29,4.29-4.69,6.13-7.21,1.84-2.51,3.3-5.12,4.38-7.81,1.08-2.69,1.57-5.43,1.48-8.22Z" 
    fill="#5d716e"
  />
  <path 
    d="M765.84,332.22c0,4.58-.81,9.05-2.42,13.4-1.62,4.36-3.79,8.46-6.53,12.32-2.74,3.86-5.88,7.43-9.43,10.71-3.55,3.28-7.23,6.1-11.04,8.49-3.82,2.38-7.66,4.22-11.52,5.52-3.86,1.3-7.41,1.95-10.64,1.95-4.49,0-7.45-.99-8.89-2.96-1.44-1.98-2.15-4.76-2.15-8.35,0-3.32.63-5.86,1.89-7.61,1.26-1.75,3.05-3.25,5.39-4.51.27-.09.76-.2,1.48-.34.72-.13,1.5-.22,2.36-.27.85-.04,1.7-.09,2.56-.13.85-.04,1.55-.07,2.09-.07.63,0,1.53-.13,2.69-.4,1.17-.27,2.42-.65,3.77-1.14,1.35-.49,2.74-1.12,4.18-1.89,1.43-.76,2.78-1.64,4.04-2.63,3.59-2.87,6.13-6.08,7.61-9.63,1.48-3.55,2.22-6.71,2.22-9.5,0-3.5-1.12-6.78-3.37-9.83-2.25-3.05-5.07-6.04-8.49-8.96-3.41-2.92-7.09-5.83-11.04-8.75-3.95-2.92-7.63-6.01-11.04-9.29-3.41-3.28-6.24-6.76-8.49-10.44-2.25-3.68-3.37-7.77-3.37-12.26,0-2.24.29-4.62.88-7.14.58-2.51,1.35-4.98,2.29-7.41.94-2.42,2.02-4.78,3.23-7.07s2.49-4.38,3.84-6.26c2.16-3.05,4.51-6.06,7.07-9.02,2.56-2.96,5.14-5.59,7.74-7.88,2.6-2.29,5.16-4.13,7.68-5.52,2.51-1.39,4.85-2.09,7-2.09,6.11,0,9.16,3.59,9.16,10.77,0,2.52-1.01,5.43-3.03,8.75-2.02,3.32-4.42,6.38-7.21,9.16-4.31,4.13-8.08,7.66-11.31,10.57-3.23,2.92-6.24,5.9-9.02,8.96,2.06,3.05,4.31,5.84,6.73,8.35,2.42,2.51,4.96,4.94,7.61,7.27,2.65,2.34,5.34,4.62,8.08,6.87,2.74,2.25,5.46,4.58,8.15,7,2.51,2.34,4.92,4.69,7.21,7.07,2.29,2.38,4.33,4.85,6.13,7.41,1.8,2.56,3.23,5.23,4.31,8.01,1.08,2.78,1.62,5.7,1.62,8.75Z" 
    fill="#5d716e"
  />
</svg>